<?xml version="1.0" encoding="UTF-8" standalone="no"?>
<!-- Created with Inkscape (http://www.inkscape.org/) -->

<svg
   width="48.673122mm"
   height="67.342873mm"
   viewBox="0 0 48.673122 67.342873"
   version="1.1"
   id="svg5"
   xml:space="preserve"
   inkscape:version="1.2.2 (b0a8486541, 2022-12-01)"
   sodipodi:docname="schmidt_logo.svg"
   xmlns:inkscape="http://www.inkscape.org/namespaces/inkscape"
   xmlns:sodipodi="http://sodipodi.sourceforge.net/DTD/sodipodi-0.dtd"
   xmlns="http://www.w3.org/2000/svg"
   xmlns:svg="http://www.w3.org/2000/svg"><sodipodi:namedview
     id="namedview7"
     pagecolor="#ffffff"
     bordercolor="#666666"
     borderopacity="1.0"
     inkscape:showpageshadow="2"
     inkscape:pageopacity="0.0"
     inkscape:pagecheckerboard="0"
     inkscape:deskcolor="#d1d1d1"
     inkscape:document-units="mm"
     showgrid="false"
     inkscape:zoom="1.5411756"
     inkscape:cx="61.316827"
     inkscape:cy="133.66419"
     inkscape:window-width="1920"
     inkscape:window-height="1043"
     inkscape:window-x="1920"
     inkscape:window-y="0"
     inkscape:window-maximized="1"
     inkscape:current-layer="layer1" /><defs
     id="defs2" /><g
     inkscape:label="Layer 1"
     inkscape:groupmode="layer"
     id="layer1"
     transform="translate(-78.862971,-83.713927)"><path
       style="fill:#69c5c4;fill-opacity:1;stroke:none;stroke-width:0.264583px;stroke-linecap:butt;stroke-linejoin:miter;stroke-opacity:1"
       d="m 90.314652,91.062256 12.515268,-7.348329 12.82008,7.211042 -5.3e-4,8.743786 -6.05549,-3.721852 -6.50871,3.922646 -6.780896,-4.037395 -5.844244,3.549544 z"
       id="path356"
       sodipodi:nodetypes="ccccccccc" /><path
       style="fill:#1c9e98;fill-opacity:1;stroke:none;stroke-width:0.264583px;stroke-linecap:butt;stroke-linejoin:miter;stroke-opacity:1"
       d="m 88.788894,101.80056 -5.18702,3.16821 0.09347,14.74751 12.717209,7.21621 5.136677,-3.17819 -5.717672,-3.37834 -0.01302,-9.91984 -6.88703,-4.09525 z"
       id="path358"
       sodipodi:nodetypes="ccccccccc" /><path
       style="fill:#00a6bc;fill-opacity:1;stroke:none;stroke-width:0.264583px;stroke-linecap:butt;stroke-linejoin:miter;stroke-opacity:1"
       d="m 90.306553,101.01334 0.108514,4.63961 5.407766,3.07818 0.04329,-4.39171 5.831017,-3.54513 -5.360369,-3.255981 z"
       id="path360"
       sodipodi:nodetypes="ccccccc" /><path
       style="fill:#00a6bc;fill-opacity:1;stroke:none;stroke-width:0.264583px;stroke-linecap:butt;stroke-linejoin:miter;stroke-opacity:1"
       d="m 96.977957,104.75525 5.921323,-3.30346 5.99237,3.38428 0.17114,4.65579 -5.99561,3.46947 -6.143157,-3.37959 z"
       id="path362"
       sodipodi:nodetypes="ccccccc" /><path
       style="fill:#00a6bc;fill-opacity:1;stroke:none;stroke-width:0.264583px;stroke-linecap:butt;stroke-linejoin:miter;stroke-opacity:1"
       d="m 104.3684,100.72912 5.77873,3.33054 0.0226,4.86424 5.42138,-3.24481 -0.0276,-4.73818 -5.79782,-3.402287 z"
       id="path364" /><path
       style="fill:#00818f;fill-opacity:1;stroke:none;stroke-width:0.264583px;stroke-linecap:butt;stroke-linejoin:miter;stroke-opacity:1"
       d="m 96.940535,110.95696 0.125175,8.53608 5.53891,3.55839 6.39147,-3.45143 -0.0132,-8.56725 -5.84887,3.37379 z"
       id="path368"
       sodipodi:nodetypes="ccccccc" /><path
       style="fill:#6ac8da;fill-opacity:1;stroke:none;stroke-width:0.264583px;stroke-linecap:butt;stroke-linejoin:miter;stroke-opacity:1"
       d="m 101.66011,100.79848 -5.845509,3.42597 -0.0075,16.13748 5.719259,3.40745 1.1216,-0.73748 -5.49223,-3.66351 -0.144547,-14.59191 5.975897,-3.30362 z"
       id="path930"
       sodipodi:nodetypes="ccccccccc" /><path
       style="fill:#ffffff;fill-opacity:1;stroke:none;stroke-width:0.264583px;stroke-linecap:butt;stroke-linejoin:miter;stroke-opacity:1"
       d="m 115.69027,100.9834 v 4.66079 l -12.56906,7.25675 -12.733279,-7.35157 -0.115631,-4.61942 -1.470591,0.90713 0.08744,4.53566 14.177371,8.31717 14.04226,-8.14431 -0.22399,-4.81603 z"
       id="path370"
       sodipodi:nodetypes="ccccccccccc" /><path
       style="fill:#ffffff;fill-opacity:1;stroke:none;stroke-width:0.264583px;stroke-linecap:butt;stroke-linejoin:miter;stroke-opacity:1"
       d="m 90.48462,99.37012 -0.109066,1.67807 6.009685,-3.511699 12.454051,7.294959 0.20582,14.63168 -6.30591,3.51128 1.84603,0.82442 5.71619,-3.46816 -0.10562,-16.19871 -13.871627,-8.361595 z"
       id="path926" /><path
       style="fill:#ffffff;fill-opacity:1;stroke:none;stroke-width:0.264583px;stroke-linecap:butt;stroke-linejoin:miter;stroke-opacity:1"
       d="m 115.65309,99.650067 -0.018,1.331483 -5.89411,-3.469803 -5.07612,3.078043 -1.35625,-0.859472 6.33561,-3.801531 z"
       id="path928" /><path
       style="fill:#284169;fill-opacity:1;stroke:none;stroke-width:0.264583px;stroke-linecap:butt;stroke-linejoin:miter;stroke-opacity:1"
       d="m 116.90001,101.73679 5.4281,3.18671 -0.0483,14.64242 -12.48969,7.37943 -5.31756,-3.2337 5.79932,-3.38228 -0.0983,-9.99173 6.89487,-3.71725 z"
       id="path366"
       sodipodi:nodetypes="ccccccccc" /><g
       id="g6954"
       transform="translate(1.5874998,5.2916667)"><text
         xml:space="preserve"
         style="font-style:normal;font-variant:normal;font-weight:bold;font-stretch:normal;font-size:10.9361px;line-height:1.25;font-family:'Open Sans';-inkscape-font-specification:'Open Sans Bold';fill:#284169;fill-opacity:1;stroke:none;stroke-width:0.264583;stroke-opacity:1"
         x="76.773521"
         y="134.65216"
         id="text6890"><tspan
           sodipodi:role="line"
           style="font-style:normal;font-variant:normal;font-weight:bold;font-stretch:normal;font-size:10.9361px;font-family:'Open Sans';-inkscape-font-specification:'Open Sans Bold';fill:#284169;fill-opacity:1;stroke:none;stroke-width:0.264583;stroke-opacity:1"
           x="76.773521"
           y="134.65216"
           id="tspan6892">SCHMIDT</tspan></text><text
         xml:space="preserve"
         style="font-style:normal;font-variant:normal;font-weight:bold;font-stretch:normal;font-size:11.4343px;line-height:1.25;font-family:'Open Sans';-inkscape-font-specification:'Open Sans Bold';fill:#284169;fill-opacity:1;stroke:none;stroke-width:0.276638;stroke-opacity:1"
         x="72.569588"
         y="153.99138"
         id="text6948"
         transform="scale(1.057201,0.94589392)"><tspan
           sodipodi:role="line"
           style="font-style:normal;font-variant:normal;font-weight:bold;font-stretch:normal;font-size:11.4343px;font-family:'Open Sans';-inkscape-font-specification:'Open Sans Bold';fill:#284169;fill-opacity:1;stroke:none;stroke-width:0.276638;stroke-opacity:1"
           x="72.569588"
           y="153.99138"
           id="tspan6946">SCIENCE</tspan></text></g></g></svg>
